<?xml version="1.0" encoding="UTF-8" standalone="no"?>
<svg
   xmlns:dc="http://purl.org/dc/elements/1.1/"
   xmlns:cc="http://creativecommons.org/ns#"
   xmlns:rdf="http://www.w3.org/1999/02/22-rdf-syntax-ns#"
   xmlns:svg="http://www.w3.org/2000/svg"
   xmlns="http://www.w3.org/2000/svg"
   xmlns:sodipodi="http://sodipodi.sourceforge.net/DTD/sodipodi-0.dtd"
   xmlns:inkscape="http://www.inkscape.org/namespaces/inkscape"
   version="1.0"
   width="478px"
   height="395px"
   viewBox="0 0 4780 3950"
   preserveAspectRatio="xMidYMid meet"
   id="svg5"
   sodipodi:docname="arrow.svg"
   inkscape:version="1.0.2-2 (e86c870879, 2021-01-15)">
  <metadata
     id="metadata11">
    <rdf:RDF>
      <cc:Work
         rdf:about="">
        <dc:format>image/svg+xml</dc:format>
        <dc:type
           rdf:resource="http://purl.org/dc/dcmitype/StillImage" />
      </cc:Work>
    </rdf:RDF>
  </metadata>
  <defs
     id="defs9" />
  <sodipodi:namedview
     pagecolor="#ffffff"
     bordercolor="#666666"
     borderopacity="1"
     objecttolerance="10"
     gridtolerance="10"
     guidetolerance="10"
     inkscape:pageopacity="0"
     inkscape:pageshadow="2"
     inkscape:window-width="1920"
     inkscape:window-height="1017"
     id="namedview7"
     showgrid="false"
     inkscape:zoom="1.0759494"
     inkscape:cx="205.63598"
     inkscape:cy="191.76423"
     inkscape:window-x="-8"
     inkscape:window-y="-8"
     inkscape:window-maximized="1"
     inkscape:current-layer="svg5" />
  <g
     id="layer1"
     fill="#000000"
     stroke="none"
     transform="matrix(1,0,0,-1,0,3817.0474)">
    <path
       d="m 2063,3613 -112,-44 -99,-107 C 1765,3367 1738,3328 1619,3125 1546,2999 1199,2437 848,1877 100,680 158,800 205,571 c 15,-75 33,-148 40,-162 7,-15 41,-61 76,-103 l 63,-76 109,-36 109,-36 1717,7 1716,7 76,38 c 101,51 140,108 188,272 l 34,117 -33,133 c -28,113 -46,160 -121,309 -72,144 -145,263 -411,665 -178,269 -491,734 -694,1034 -204,300 -399,590 -434,645 -85,134 -162,222 -203,231 -18,3 -36,10 -42,14 -20,15 -105,30 -162,29 -44,-1 -86,-12 -170,-46 z"
       id="path2" />
  </g>
  <path
     style="fill:#7ad0da;stroke-width:0.929412"
     d="M 224.17883,15.161477 C 213.73293,16.080458 203.6665,20.325048 194.50664,25.223449 173.39611,43.725531 161.71198,69.85693 146.70038,93.014272 107.68817,157.08328 67.0007,220.11753 28.347057,284.40226 c -5.880667,10.33162 -12.920338,21.83885 -9.775161,34.25391 2.154533,11.28174 4.028298,23.43423 12.478079,31.99028 3.596582,4.61346 6.773788,9.94618 13.183037,10.58166 8.259627,2.70181 16.311031,6.74175 25.247736,5.34522 111.565382,-0.54656 223.178342,-0.11436 334.711712,-1.8187 10.01435,-4.38698 20.52373,-11.04279 23.17357,-22.45837 2.06748,-7.39323 6.34992,-14.74419 5.98139,-22.54075 -8.23728,-41.51117 -34.84544,-75.76414 -57.29476,-110.5064 C 336.19745,149.82273 297.00417,89.931693 255.94739,31.324397 249.38407,20.045044 236.73217,15.301641 224.17883,15.161477 Z"
     id="path840"
     transform="scale(10)" />
</svg>
