<?xml version="1.0" encoding="UTF-8" standalone="no"?>
<svg
   xmlns:dc="http://purl.org/dc/elements/1.1/"
   xmlns:cc="http://creativecommons.org/ns#"
   xmlns:rdf="http://www.w3.org/1999/02/22-rdf-syntax-ns#"
   xmlns:svg="http://www.w3.org/2000/svg"
   xmlns="http://www.w3.org/2000/svg"
   xmlns:sodipodi="http://sodipodi.sourceforge.net/DTD/sodipodi-0.dtd"
   xmlns:inkscape="http://www.inkscape.org/namespaces/inkscape"
   width="419.14468"
   height="403.60483"
   id="svg1650"
   version="1.1"
   inkscape:version="1.0.2-2 (e86c870879, 2021-01-15)"
   sodipodi:docname="logo.svg">
  <defs
     id="defs1652" />
  <sodipodi:namedview
     id="base"
     pagecolor="#ffffff"
     bordercolor="#666666"
     borderopacity="1.0"
     inkscape:pageopacity="0.0"
     inkscape:pageshadow="2"
     inkscape:zoom="1.3968575"
     inkscape:cx="254.68658"
     inkscape:cy="169.2501"
     inkscape:document-units="px"
     inkscape:current-layer="layer1"
     showgrid="false"
     fit-margin-top="0"
     fit-margin-left="0"
     fit-margin-right="0"
     fit-margin-bottom="0"
     inkscape:window-width="1920"
     inkscape:window-height="1017"
     inkscape:window-x="-8"
     inkscape:window-y="-8"
     inkscape:window-maximized="1"
     inkscape:document-rotation="0" />
  <metadata
     id="metadata1655">
    <rdf:RDF>
      <cc:Work
         rdf:about="">
        <dc:format>image/svg+xml</dc:format>
        <dc:type
           rdf:resource="http://purl.org/dc/dcmitype/StillImage" />
        <dc:title></dc:title>
      </cc:Work>
    </rdf:RDF>
  </metadata>
  <g
     inkscape:label="Layer 1"
     inkscape:groupmode="layer"
     id="layer1"
     transform="translate(-118.99908,-256.27405)">
    <path
       style="fill:#bfbfbf;fill-opacity:1;stroke:none"
       d="m 399.34854,256.27405 c -0.88264,0.0113 -1.78804,0.0545 -2.6875,0.125 -35.8236,6.1835 -55.5208,44.06435 -58.375,77.46875 -4.1707,30.3114 9.18705,69.2705 42.46875,76.0625 4.8275,0.9191 9.8436,0.49905 14.5625,-0.78125 40.0769,-13.4384 58.01175,-60.90305 52.21875,-100.21875 -1.68398,-25.39239 -20.82559,-53.00518 -48.1875,-52.65625 z m -151.875,1.625 c -22.27494,0.54679 -39.62659,23.1384 -43.15625,44.375 -7.4409,42.0743 11.69834,94.35185 55.53125,107.65625 4.1057,0.8929 8.3525,0.98485 12.5,0.34375 29.6264,-4.9375 42.177,-38.15385 40.9375,-64.96875 -0.8917,-35.3725 -19.2659,-76.27315 -56,-86.21875 -3.35779,-0.89041 -6.63037,-1.26561 -9.8125,-1.1875 z m 248.9375,119.5 c -38.5343,2.3054 -64.95265,40.75375 -68.71875,76.65625 -5.0996,25.8937 8.7049,60.52655 38.25,62.59375 41.1967,-0.5078 69.30105,-44.52855 70.46875,-82.40625 2.6058,-25.0513 -12.151,-55.46055 -40,-56.84375 z m -337.28125,8.53125 c -16.394,-0.14105 -32.51758,9.67881 -37.875,26.34375 -14.2927,44.579 14.4089,101.03815 61.625,110.40625 19.7056,3.3721 37.02035,-11.76085 41.90625,-29.96875 10.3546,-38.9448 -10.91335,-84.16525 -46.90625,-101.84375 -5.86392,-3.29091 -12.33496,-4.88231 -18.75,-4.9375 z m 172.75,79.9375 c -32.13937,0.0685 -64.78276,16.37818 -85.59375,40.65625 -22.4774,28.2972 -40.89025,61.2265 -48.09375,96.9375 -8.7514,25.7065 11.08339,55.29045 38.5625,55.46875 33.0589,0.9183 61.47075,-21.78295 94.34375,-23.46875 27.8901,-4.2517 52.8631,10.2552 77.9375,19.75 21.3493,9.1313 50.8503,5.63195 61.75,-17.34375 8.5736,-23.4187 -4.0459,-48.39 -14.5,-69.1875 -21.3222,-33.757 -44.1651,-69.2358 -79.125,-90.3125 -14.01291,-8.6857 -29.58528,-12.53347 -45.28125,-12.5 z"
       id="path1575" />
    <path
       style="fill:#1b1718;stroke-width:0.711341"
       d="m 312.64618,659.01555 c -5.11384,-1.52885 -7.77321,-6.61373 -7.66004,-14.64585 0.0504,-3.57086 -0.69062,-6.52977 -4.09774,-16.3608 -7.05664,-20.36214 -13.87121,-36.12727 -24.60642,-56.92528 C 258.42621,536.49026 246.11695,516.61086 212.26309,467.69309 191.561,437.77917 187.8836,431.9139 181.26672,418.25501 172.27627,399.69658 168.43765,384.2852 168.42127,366.6828 c -0.0168,-14.80419 2.24012,-24.84416 8.30403,-36.98959 7.23096,-14.48309 19.28388,-25.82423 33.64801,-31.66086 9.68676,-3.9361 15.72452,-4.9258 29.99766,-4.91723 11.53203,0.007 14.26148,0.24195 22.0667,1.9034 27.55757,5.86435 52.22742,19.01586 69.5291,37.06614 11.19261,11.67687 16.14009,21.30255 19.70246,38.3327 0.22504,1.07592 0.68892,1.95623 1.03131,1.95623 0.34196,0 1.47986,-2.16073 2.52822,-4.80154 10.85999,-27.35736 35.32497,-49.3198 60.48743,-54.30027 6.97388,-1.38033 19.51642,-1.2532 25.2526,0.25638 8.56998,2.25473 17.322,7.25993 24.29074,13.8916 7.21954,6.8703 11.2683,12.61015 16.23938,23.02195 10.74176,22.49844 12.13131,54.06195 3.46469,78.69701 -7.31961,20.80602 -19.38742,39.13977 -37.55187,57.04965 -8.83213,8.70829 -13.22528,12.4304 -38.45324,32.57905 -25.15196,20.08803 -36.53372,30.76407 -49.82463,46.73528 -20.33795,24.43948 -33.22081,52.58307 -34.51535,75.40203 -0.59062,10.40739 -1.40854,13.43955 -4.31409,15.99071 -1.34583,1.18161 -2.72974,2.14847 -3.0753,2.14847 -0.34532,0 -1.05476,0.13273 -1.57585,0.29411 -0.52088,0.16138 -1.87422,0.0168 -3.00709,-0.32174 z m 2.37221,-58.69353 c 11.39514,-26.90955 30.39211,-53.69149 52.45703,-73.95402 10.73051,-9.85393 14.88747,-13.31599 33.30264,-27.73552 31.80609,-24.90491 46.34912,-39.31735 55.98314,-55.48062 14.48643,-24.30422 18.00446,-50.98088 10.13145,-76.82468 -5.50684,-18.07648 -17.29798,-31.04013 -32.2772,-35.48699 -5.5162,-1.63756 -15.50494,-1.50422 -21.99269,0.2941 -10.48019,2.90422 -20.70937,9.36665 -30.08997,19.00985 -9.83171,10.1069 -15.38628,19.59012 -20.45987,34.93042 -3.12224,9.44059 -4.48102,12.46756 -6.67217,14.86378 -1.87259,2.04798 -2.73256,2.01506 -4.63916,-0.17821 -0.8504,-0.97802 -1.84573,-1.77828 -2.21191,-1.77828 -0.88352,0 -1.99009,-5.74255 -2.90662,-15.08426 -1.91197,-19.48769 -8.20455,-32.24744 -22.97336,-46.58462 -17.15712,-16.65569 -43.12376,-29.17624 -68.4276,-32.99446 -7.17106,-1.08204 -21.33027,-1.07927 -27.3866,0.005 -21.40657,3.83375 -37.24544,16.24541 -44.7965,35.10333 -3.82587,9.55454 -4.44599,12.88604 -4.79584,25.76592 -0.28061,10.32641 -0.11339,13.13179 1.14288,19.20617 2.1883,10.57955 4.58158,17.39093 9.9978,28.45356 7.34842,15.00936 16.42017,28.15712 40.82554,59.16836 10.64338,13.52421 22.63438,30.25804 30.08572,41.98547 16.0091,25.19596 35.6918,61.55753 46.1286,85.21717 2.24357,5.08612 4.23434,9.50437 4.42405,9.81853 0.84201,1.39425 2.07108,-0.44781 5.15064,-7.72038 z"
       id="path1986-4"
       inkscape:connector-curvature="0"
       sodipodi:nodetypes="ccccsccccccscscccccccccccsccccssccscccccssccccccccccccc" />
  </g>
</svg>
